<?xml version="1.0" encoding="UTF-8"?><svg xmlns="http://www.w3.org/2000/svg" viewBox="0 0 36 36">
 <g id="change1_1"><path d="m36 18c0 9.941-8.059 18-18 18-9.94 0-18-8.059-18-18 0-9.94 8.06-18 18-18 9.941 0 18 8.06 18 18" fill="#FFCC4D"/></g>
 <g id="change2_1"><path d="m28.457 17.797c-0.06-0.135-1.499-3.297-4.457-3.297-2.957 0-4.397 3.162-4.457 3.297-0.092 0.207-0.032 0.449 0.145 0.591 0.175 0.142 0.426 0.147 0.61 0.014 0.012-0.009 1.262-0.902 3.702-0.902 2.426 0 3.674 0.881 3.702 0.901 0.088 0.066 0.194 0.099 0.298 0.099 0.11 0 0.221-0.037 0.312-0.109 0.177-0.142 0.238-0.386 0.145-0.594zm-12 0c-0.06-0.135-1.499-3.297-4.457-3.297-2.957 0-4.397 3.162-4.457 3.297-0.092 0.207-0.032 0.449 0.144 0.591s0.427 0.147 0.61 0.014c0.013-0.009 1.262-0.902 3.703-0.902 2.426 0 3.674 0.881 3.702 0.901 0.088 0.066 0.194 0.099 0.298 0.099 0.11 0 0.221-0.037 0.312-0.109 0.178-0.142 0.237-0.386 0.145-0.594zm14.543-1.797c-0.396 0-0.772-0.238-0.929-0.629-1.778-4.445-6.223-5.381-6.268-5.391-0.541-0.108-0.893-0.635-0.784-1.177 0.108-0.542 0.635-0.891 1.177-0.784 0.226 0.045 5.556 1.168 7.732 6.608 0.205 0.513-0.045 1.095-0.558 1.3-0.12 0.05-0.246 0.073-0.37 0.073zm-26 0c-0.124 0-0.249-0.023-0.371-0.072-0.513-0.205-0.762-0.787-0.557-1.3 2.176-5.44 7.506-6.563 7.732-6.608 0.543-0.106 1.068 0.243 1.177 0.784 0.108 0.54-0.242 1.066-0.781 1.176-0.185 0.038-4.506 0.98-6.271 5.391-0.157 0.391-0.533 0.629-0.929 0.629zm13 6c-3.623 0-6.027-0.422-9-1-0.679-0.131-2 0-2 2 0 4 4.595 9 11 9 6.404 0 11-5 11-9 0-2-1.321-2.132-2-2-2.973 0.578-5.377 1-9 1z" fill="#664500"/></g>
 <g id="change3_1"><path d="m9 23s3 1 9 1 9-1 9-1-2 4-9 4-9-4-9-4z" fill="#FFF"/></g>
 <g id="change4_1"><path d="m10.847 28.229c-0.68 2.677-3.4 4.295-6.077 3.615-2.676-0.679-4.295-3.399-3.616-6.076s6.337-8.708 7.307-8.462c0.97 0.247 3.065 8.247 2.386 10.923zm14.286 0c0.68 2.677 3.4 4.295 6.077 3.615 2.677-0.679 4.296-3.399 3.616-6.076s-6.338-8.708-7.308-8.462c-0.968 0.247-3.064 8.247-2.385 10.923z" fill="#5DADEC"/></g>
</svg>