<?xml version="1.0" encoding="UTF-8"?><svg xmlns="http://www.w3.org/2000/svg" height="494.83pt" version="1.1" viewBox="0 0 494.82 494.83" width="494.82pt">
 <g id="surface1">
  <g id="change1_1"><path d="m247.41 0.0078125c136.64 0 247.41 110.77 247.41 247.41s-110.77 247.41-247.41 247.41-247.41-110.77-247.41-247.41 110.77-247.41 247.41-247.41" fill="#7097d6"/></g>
  <g id="change2_1"><path d="m178.85 348.77c0 8.23-6.67 14.9-14.9 14.9h-32.79c-8.23 0-14.91-6.67-14.91-14.9v-114.77c0-8.23 6.68-14.9 14.91-14.9h32.79c8.23 0 14.9 6.67 14.9 14.9v114.77" fill="#fff"/></g>
  <g id="change2_2"><path d="m367.39 266.42c0-7.94-4.2-14.74-10.17-17.58 6.13-4.07 10.17-11.03 10.17-18.93 0-12.56-10.18-22.73-22.73-22.73h-69.68s22.36-31.3 19.38-66.33c-2.98-35.02-24.59-36.51-26.82-35.77 0 0-15.66 0.74-16.4 26.08-0.75 15.28-10.44 26.09-10.44 26.09l-26.08 32.79c-24.59 26.82-23.1 54.4-23.1 54.4v84.95c0 12.35 10.01 22.36 22.36 22.36h120.72c11.11 0 20.12-9.01 20.12-20.12 0-5.02-1.85-9.61-4.89-13.13 7.2-2.68 12.34-9.61 12.34-17.74 0-6.51-3.28-12.24-8.27-15.65 7.67-1.59 13.49-9.34 13.49-18.69" fill="#fff"/></g>
  <g id="change3_1"><path d="m98.637 445.12c-59.907-45.15-98.637-116.9-98.637-197.7 0 80.79 38.73 152.55 98.637 197.7m-98.637-197.7c0-136.65 110.77-247.42 247.41-247.42v0.0078125c-136.64 0-247.41 110.77-247.41 247.41" fill="#f5f5f5"/></g>
  <g id="change4_1"><path d="m247.41 494.83c-55.84 0-107.36-18.5-148.77-49.71-59.91-45.15-98.64-116.91-98.64-197.7 0-136.64 110.77-247.41 247.41-247.41v146.34c-3 6.77-6.71 10.9-6.71 10.9l-26.08 32.79c-24.59 26.82-23.1 54.4-23.1 54.4v84.95c0 12.35 10.01 22.36 22.36 22.36h33.53v143.08m-116.25-275.73c-8.23 0-14.91 6.67-14.91 14.9v114.77c0 8.23 6.68 14.9 14.91 14.9h32.79c8.23 0 14.9-6.67 14.9-14.9v-114.77c0-8.23-6.67-14.9-14.9-14.9h-32.79" fill="#6791d2"/></g>
  <g id="change3_2"><path d="m163.95 363.67h-32.79c-8.23 0-14.91-6.67-14.91-14.9v-114.77c0-8.23 6.68-14.9 14.91-14.9h32.79c8.23 0 14.9 6.67 14.9 14.9v114.77c0 8.23-6.67 14.9-14.9 14.9" fill="#f5f5f5"/></g>
  <g id="change3_3"><path d="m247.41 351.75h-33.53c-12.35 0-22.36-10.01-22.36-22.36v-84.95s-1.49-27.58 23.1-54.4l26.08-32.79s3.71-4.13 6.71-10.9v205.4" fill="#f5f5f5"/></g>
 </g>
</svg>