<?xml version="1.0" encoding="UTF-8"?><svg xmlns="http://www.w3.org/2000/svg" viewBox="0 0 36 36">
 <g id="change1_1"><path d="m36 18c0 9.941-8.059 18-18 18-9.94 0-18-8.059-18-18 0-9.94 8.06-18 18-18 9.941 0 18 8.06 18 18" fill="#FFCC4D"/></g>
 <g id="change2_1"><ellipse cx="11.5" cy="16.5" fill="#664500" rx="2.5" ry="3.5"/></g>
 <g id="change2_2"><ellipse cx="24.5" cy="16.5" fill="#664500" rx="2.5" ry="3.5"/></g>
 <g id="change2_3"><path d="m23.485 27.879c-0.011-0.044-1.145-4.379-5.485-4.379s-5.474 4.335-5.485 4.379c-0.053 0.213 0.044 0.431 0.232 0.544 0.188 0.112 0.433 0.086 0.596-0.06 0.009-0.007 1.013-0.863 4.657-0.863 3.59 0 4.617 0.83 4.656 0.863 0.095 0.091 0.219 0.137 0.344 0.137 0.084 0 0.169-0.021 0.246-0.064 0.196-0.111 0.294-0.339 0.239-0.557z" fill="#664500"/></g>
 <g id="change3_1"><path d="m10 30c0 2.762-2.238 5-5 5s-5-2.238-5-5 4-10 5-10 5 7.238 5 10z" fill="#5DADEC"/></g>
 <g id="change2_4"><path d="m30 13c-5.554 0-7.802-4.367-7.895-4.553-0.247-0.494-0.047-1.095 0.447-1.342 0.492-0.247 1.092-0.048 1.34 0.443 0.075 0.146 1.821 3.452 6.108 3.452 0.553 0 1 0.448 1 1 0 0.553-0.447 1-1 1zm-24 0c-0.552 0-1-0.448-1-1s0.448-1 1-1c5.083 0 5.996-3.12 6.033-3.253 0.145-0.528 0.69-0.848 1.219-0.709 0.53 0.139 0.851 0.673 0.718 1.205-0.049 0.194-1.266 4.757-7.97 4.757z" fill="#664500"/></g>
</svg>