<?xml version="1.0" encoding="UTF-8"?><svg xmlns="http://www.w3.org/2000/svg" viewBox="0 0 36 36">
 <g id="change1_1"><path d="m36 18c0 9.941-8.059 18-18 18s-18-8.059-18-18 8.059-18 18-18 18 8.059 18 18" fill="#FFCC4D"/></g>
 <g id="change2_1"><ellipse cx="18" cy="25.5" fill="#664500" rx="3" ry="3.5"/></g>
 <g id="change2_2"><path d="m31.001 11c-0.305 0-0.604-0.138-0.801-0.4-2.64-3.521-6.061-3.598-6.206-3.6-0.55-0.006-0.994-0.456-0.991-1.005 0.003-0.551 0.447-0.995 0.997-0.995 0.184 0 4.537 0.05 7.8 4.4 0.332 0.442 0.242 1.069-0.2 1.4-0.18 0.135-0.39 0.2-0.599 0.2zm-26.002 0c-0.208 0-0.419-0.065-0.599-0.2-0.442-0.331-0.531-0.958-0.2-1.4 3.262-4.35 7.616-4.4 7.8-4.4 0.552 0 1 0.448 1 1 0 0.551-0.445 0.998-0.996 1-0.155 0.002-3.568 0.086-6.204 3.6-0.196 0.262-0.497 0.4-0.801 0.4z" fill="#664500"/></g>
 <g id="change2_3"><ellipse cx="12" cy="14.5" fill="#664500" rx="2.5" ry="3.5"/></g>
 <g id="change2_4"><ellipse cx="24" cy="14.5" fill="#664500" rx="2.5" ry="3.5"/></g>
</svg>